# This file uses centimeters as units for non-parametric coordinates.

mtllib BlackBoard_geo_kitchen.mtl
g default
v 2803.335449 1141.287720 413.567352
v 2803.335449 1163.289551 435.569244
v 2849.347656 1141.287720 413.567352
v 2849.347656 1163.289551 435.569244
v 2803.335449 1581.367798 413.567352
v 2803.335449 1559.365967 435.569244
v 2849.347656 1581.367798 413.567352
v 2849.347656 1559.365967 435.569244
v 2803.335449 1559.365967 -435.569244
v 2803.335449 1581.367798 -413.567352
v 2849.347656 1559.365967 -435.569244
v 2849.347656 1581.367798 -413.567352
v 2803.335449 1141.287720 -413.567352
v 2803.335449 1163.289551 -435.569244
v 2849.347656 1141.287720 -413.567352
v 2849.347656 1163.289551 -435.569244
v 2849.347656 1427.572388 -426.596283
v 2803.335449 1427.572388 -426.596283
v 2803.335449 1427.572388 426.596283
v 2849.347656 1427.572388 426.596283
v 2849.347656 1315.562622 -426.596283
v 2803.335449 1315.562622 -426.596283
v 2803.335449 1315.562622 426.596283
v 2849.347656 1315.562622 426.596283
v 2803.335449 1535.241699 -408.962219
v 2803.335449 1535.241699 408.962219
v 2803.335449 1554.563354 388.304291
v 2803.335449 1554.563354 -388.304291
v 2803.335449 1168.092163 -388.304291
v 2803.335449 1187.413818 -408.962219
v 2803.335449 1168.092163 388.304291
v 2803.335449 1187.413818 408.962219
v 2803.335449 1419.502686 -400.537323
v 2803.335449 1419.502686 400.537323
v 2803.335449 1321.137573 -400.537323
v 2803.335449 1321.137573 400.537323
v 2815.672363 1535.241699 -408.962219
v 2815.672363 1535.241699 408.962219
v 2815.672363 1554.563354 388.304291
v 2815.672363 1554.563354 -388.304291
v 2815.672363 1168.092163 -388.304291
v 2815.672363 1187.413818 -408.962219
v 2815.672363 1168.092163 388.304291
v 2815.672363 1187.413818 408.962219
v 2815.672363 1419.502686 -400.537323
v 2815.672363 1419.502686 400.537323
v 2815.672363 1321.137573 -400.537323
v 2815.672363 1321.137573 400.537323
v 2849.347656 1147.385498 0.000000
v 2803.335449 1147.385498 0.000000
v 2803.335449 1173.447021 0.000000
v 2815.672363 1173.447021 0.000000
v 2815.672363 1192.233276 0.000000
v 2815.672363 1322.251343 0.000000
v 2815.672363 1417.890625 0.000000
v 2815.672363 1530.422241 0.000000
v 2815.672363 1549.208496 0.000000
v 2803.335449 1549.208496 0.000000
v 2803.335449 1575.270020 0.000000
v 2849.347656 1575.270020 0.000000
vt 0.951433 0.352020
vt 0.999023 0.353384
vt 0.984667 0.501572
vt 0.942380 0.490137
vt 0.499336 0.509931
vt 0.498595 0.556723
vt 0.078231 0.558233
vt 0.078367 0.511463
vt 0.060913 0.485625
vt 0.016684 0.496694
vt 0.006437 0.355084
vt 0.053335 0.351357
vt 0.077261 0.051195
vt 0.077612 0.004416
vt 0.498571 0.006589
vt 0.498858 0.053384
vt 0.085573 0.964624
vt 0.499813 0.959742
vt 0.499813 0.978771
vt 0.106497 0.984195
vt 0.939110 0.073774
vt 0.920885 0.047806
vt 0.968093 0.032027
vt 0.983363 0.062493
vt 0.922584 0.516258
vt 0.969618 0.533888
vt 0.031168 0.527090
vt 0.057576 0.077001
vt 0.015048 0.065488
vt 0.030149 0.033288
vt 0.085573 0.612307
vt 0.106497 0.592736
vt 0.499813 0.598160
vt 0.499813 0.617189
vt 0.094106 0.847391
vt 0.499813 0.845758
vt 0.000977 0.231906
vt 0.048664 0.232766
vt 0.094106 0.747756
vt 0.499813 0.748885
vt 0.947475 0.231595
vt 0.994422 0.228349
vt 0.894908 0.489465
vt 0.919879 0.463833
vt 0.499732 0.483286
vt 0.107138 0.484866
vt 0.082770 0.460830
vt 0.105163 0.077728
vt 0.080492 0.102929
vt 0.498977 0.080051
vt 0.917013 0.098807
vt 0.891848 0.074596
vt 0.924997 0.342035
vt 0.079791 0.340616
vt 0.920722 0.239541
vt 0.075461 0.239642
vt 0.891206 0.477895
vt 0.910125 0.459320
vt 0.499914 0.470577
vt 0.110715 0.473118
vt 0.092325 0.456607
vt 0.108808 0.089200
vt 0.090660 0.107933
vt 0.499026 0.092765
vt 0.907173 0.103384
vt 0.888595 0.086265
vt 0.912198 0.341880
vt 0.092857 0.339996
vt 0.907605 0.240122
vt 0.088376 0.239652
vt 0.919928 0.000977
vt 0.893129 0.592736
vt 0.914053 0.612307
vt 0.905519 0.747756
vt 0.905519 0.847391
vt 0.914053 0.964624
vt 0.893129 0.984195
vt 0.921152 0.563082
vn 0.000000 -0.036779 0.999323
vn 0.000000 -0.036779 0.999323
vn 0.000000 0.084413 0.996431
vn 0.000000 0.084413 0.996431
vn 0.000000 1.000000 0.000000
vn 0.000000 1.000000 0.000000
vn 0.000000 0.999334 -0.036489
vn 0.000000 0.999334 -0.036489
vn 0.000000 0.084413 -0.996431
vn 0.000000 0.084413 -0.996431
vn 0.000000 -0.036779 -0.999323
vn 0.000000 -0.036779 -0.999323
vn 0.000000 -0.999334 -0.036489
vn 0.000000 -0.999334 -0.036489
vn 0.000000 -1.000000 0.000000
vn 0.000000 -1.000000 0.000000
vn -1.000000 0.000000 0.000000
vn -1.000000 0.000000 0.000000
vn -1.000000 0.000000 0.000000
vn -1.000000 0.000000 0.000000
vn 0.000000 -0.074553 0.997217
vn 0.000000 -0.999334 0.036489
vn 0.000000 -0.999334 0.036489
vn 0.000000 -0.074553 0.997217
vn 0.000000 0.999334 0.036489
vn 0.000000 0.084413 0.996431
vn 0.000000 0.084413 0.996431
vn 0.000000 0.999334 0.036489
vn 0.000000 0.084413 -0.996431
vn 0.000000 0.999334 -0.036489
vn 0.000000 0.999334 -0.036489
vn 0.000000 0.084413 -0.996431
vn 0.000000 -0.999334 -0.036489
vn 0.000000 -0.074553 -0.997217
vn 0.000000 -0.074553 -0.997217
vn 0.000000 -0.999334 -0.036489
vn -1.000000 0.000000 0.000000
vn -1.000000 0.000000 0.000000
vn -1.000000 0.000000 0.000000
vn -1.000000 0.000000 0.000000
vn -1.000000 0.000000 0.000000
vn -1.000000 0.000000 0.000000
vn -1.000000 0.000000 0.000000
vn -1.000000 0.000000 0.000000
vn 0.000000 -0.036779 -0.999323
vn 0.000000 -0.036779 -0.999323
vn 0.000000 0.033933 -0.999424
vn 0.000000 0.033933 -0.999424
vn -1.000000 0.000000 0.000000
vn -1.000000 0.000000 0.000000
vn -1.000000 0.000000 0.000000
vn -1.000000 0.000000 0.000000
vn 0.000000 0.033933 0.999424
vn 0.000000 0.033933 0.999424
vn 0.000000 -0.036779 0.999323
vn 0.000000 -0.036779 0.999323
vn 0.000000 0.033933 -0.999424
vn 0.000000 0.033933 -0.999424
vn 0.000000 -0.074553 -0.997217
vn 0.000000 -0.074553 -0.997217
vn -1.000000 0.000000 0.000000
vn -1.000000 0.000000 0.000000
vn -1.000000 0.000000 0.000000
vn -1.000000 0.000000 0.000000
vn 0.000000 -0.074553 0.997217
vn 0.000000 -0.074553 0.997217
vn 0.000000 0.033933 0.999424
vn 0.000000 0.033933 0.999424
vn -1.000000 0.000000 0.000000
vn -1.000000 0.000000 0.000000
vn -1.000000 0.000000 0.000000
vn -1.000000 0.000000 0.000000
vn -1.000000 0.000000 0.000000
vn -1.000000 0.000000 0.000000
vn -1.000000 0.000000 0.000000
vn -1.000000 0.000000 0.000000
vn -1.000000 0.000000 0.000000
vn -1.000000 0.000000 0.000000
vn -1.000000 0.000000 0.000000
vn -1.000000 0.000000 0.000000
vn -1.000000 0.000000 0.000000
vn -1.000000 0.000000 0.000000
vn -1.000000 0.000000 0.000000
vn -1.000000 0.000000 0.000000
vn -1.000000 0.000000 0.000000
vn -1.000000 0.000000 0.000000
vn -1.000000 0.000000 0.000000
vn -1.000000 0.000000 0.000000
vn -1.000000 0.000000 0.000000
vn -1.000000 0.000000 0.000000
vn -1.000000 0.000000 0.000000
vn -1.000000 0.000000 0.000000
vn -1.000000 0.000000 0.000000
vn -1.000000 0.000000 0.000000
vn -1.000000 0.000000 0.000000
vn -1.000000 0.000000 0.000000
vn -1.000000 0.000000 0.000000
vn -1.000000 0.000000 0.000000
vn -1.000000 0.000000 0.000000
vn -1.000000 0.000000 0.000000
vn -1.000000 0.000000 0.000000
vn -1.000000 0.000000 0.000000
vn -1.000000 0.000000 0.000000
vn -1.000000 0.000000 0.000000
vn -1.000000 0.000000 0.000000
vn -1.000000 0.000000 0.000000
vn -1.000000 0.000000 0.000000
vn -1.000000 0.000000 0.000000
vn -1.000000 0.000000 0.000000
vn -1.000000 0.000000 0.000000
vn -1.000000 0.000000 0.000000
vn -1.000000 0.000000 0.000000
vn -1.000000 0.000000 0.000000
vn -1.000000 0.000000 0.000000
vn -1.000000 0.000000 0.000000
vn -1.000000 0.000000 0.000000
vn 0.000000 -0.090205 -0.995923
vn 0.000000 -0.999417 -0.034132
vn 0.000000 -0.999417 -0.034132
vn 0.000000 -0.090205 -0.995923
vn 0.000000 -1.000000 0.000000
vn 0.000000 -1.000000 0.000000
vn 0.000000 -0.999417 0.034132
vn 0.000000 -0.999417 0.034132
vn 0.000000 -0.999417 0.034132
vn 0.000000 -0.090205 0.995923
vn 0.000000 -0.090205 0.995923
vn 0.000000 -0.999417 0.034132
vn 0.000000 0.079677 0.996821
vn 0.000000 0.999417 0.034132
vn 0.000000 0.999417 0.034132
vn 0.000000 0.079677 0.996821
vn 0.000000 0.999417 0.034132
vn 0.000000 1.000000 0.000000
vn 0.000000 1.000000 0.000000
vn 0.000000 0.999417 0.034132
vn 0.000000 0.999417 -0.034132
vn 0.000000 0.079677 -0.996821
vn 0.000000 0.079677 -0.996821
vn 0.000000 0.999417 -0.034132
vn 0.000000 0.039319 -0.999227
vn 0.000000 -0.090205 -0.995923
vn 0.000000 -0.090205 -0.995923
vn 0.000000 0.039319 -0.999227
vn 0.000000 -0.090205 0.995923
vn 0.000000 0.039319 0.999227
vn 0.000000 0.039319 0.999227
vn 0.000000 -0.090205 0.995923
vn 0.000000 -0.036276 -0.999342
vn 0.000000 0.039319 -0.999227
vn 0.000000 0.039319 -0.999227
vn 0.000000 -0.036276 -0.999342
vn 0.000000 0.039319 0.999227
vn 0.000000 -0.036276 0.999342
vn 0.000000 -0.036276 0.999342
vn 0.000000 0.039319 0.999227
vn 0.000000 0.079677 -0.996821
vn 0.000000 -0.036276 -0.999342
vn 0.000000 -0.036276 -0.999342
vn 0.000000 0.079677 -0.996821
vn 0.000000 -0.036276 0.999342
vn 0.000000 0.079677 0.996821
vn 0.000000 0.079677 0.996821
vn 0.000000 -0.036276 0.999342
vn 0.000000 -1.000000 0.000000
vn 0.000000 -1.000000 0.000000
vn 0.000000 -0.999334 0.036489
vn 0.000000 -0.999334 0.036489
vn -1.000000 0.000000 0.000000
vn -1.000000 0.000000 0.000000
vn -1.000000 0.000000 0.000000
vn -1.000000 0.000000 0.000000
vn 0.000000 1.000000 0.000000
vn 0.000000 1.000000 0.000000
vn 0.000000 0.999417 -0.034132
vn 0.000000 0.999417 -0.034132
vn -1.000000 0.000000 0.000000
vn -1.000000 0.000000 0.000000
vn -1.000000 0.000000 0.000000
vn -1.000000 0.000000 0.000000
vn -1.000000 0.000000 0.000000
vn -1.000000 0.000000 0.000000
vn -1.000000 0.000000 0.000000
vn -1.000000 0.000000 0.000000
vn -1.000000 0.000000 0.000000
vn -1.000000 0.000000 0.000000
vn -1.000000 0.000000 0.000000
vn -1.000000 0.000000 0.000000
vn -1.000000 0.000000 0.000000
vn -1.000000 0.000000 0.000000
vn -1.000000 0.000000 0.000000
vn -1.000000 0.000000 0.000000
vn -1.000000 0.000000 0.000000
vn -1.000000 0.000000 0.000000
vn -1.000000 0.000000 0.000000
vn -1.000000 0.000000 0.000000
vn 0.000000 -0.999417 -0.034132
vn 0.000000 -1.000000 0.000000
vn 0.000000 -1.000000 0.000000
vn 0.000000 -0.999417 -0.034132
vn -1.000000 0.000000 0.000000
vn -1.000000 0.000000 0.000000
vn -1.000000 0.000000 0.000000
vn -1.000000 0.000000 0.000000
vn 0.000000 0.999334 0.036489
vn 0.000000 0.999334 0.036489
vn 0.000000 1.000000 0.000000
vn 0.000000 1.000000 0.000000
s off
g BlackBoard_geo_kitchen:pCube10
usemtl BlackBoard_geo_kitchen:initialShadingGroup
f 19/1/1 20/2/2 8/3/3 6/4/4
f 59/5/5 60/6/6 12/7/7 10/8/8
f 9/9/9 11/10/10 17/11/11 18/12/12
f 13/13/13 15/14/14 49/15/15 50/16/16
f 37/17/17 56/18/18 57/19/19 40/20/20
f 2/21/21 1/22/22 3/23/23 4/24/24
f 5/25/25 6/4/26 8/3/27 7/26/28
f 9/9/29 10/8/30 12/27/31 11/10/32
f 13/13/33 14/28/34 16/29/35 15/30/36
f 42/31/37 41/32/38 52/33/39 53/34/40
f 45/35/41 55/36/42 56/18/43 37/17/44
f 18/12/45 17/11/46 21/37/47 22/38/48
f 47/39/49 54/40/50 55/36/51 45/35/52
f 23/41/53 24/42/54 20/2/55 19/1/56
f 22/38/57 21/37/58 16/29/59 14/28/60
f 42/31/61 53/34/62 54/40/63 47/39/64
f 2/21/65 4/24/66 24/42/67 23/41/68
f 6/4/69 5/25/70 27/43/71 26/44/72
f 58/45/73 59/5/74 10/8/75 28/46/76
f 10/8/77 9/9/78 25/47/79 28/46/80
f 14/28/81 13/13/82 29/48/83 30/49/84
f 13/13/85 50/16/86 51/50/87 29/48/88
f 1/22/89 2/21/90 32/51/91 31/52/92
f 19/1/93 6/4/94 26/44/95 34/53/96
f 9/9/97 18/12/98 33/54/99 25/47/100
f 23/41/101 19/1/102 34/53/103 36/55/104
f 18/12/105 22/38/106 35/56/107 33/54/108
f 2/21/109 23/41/110 36/55/111 32/51/112
f 22/38/113 14/28/114 30/49/115 35/56/116
f 26/44/117 27/43/118 39/57/119 38/58/120
f 57/59/121 58/45/122 28/46/123 40/60/124
f 28/46/125 25/47/126 37/61/127 40/60/128
f 30/49/129 29/48/130 41/62/131 42/63/132
f 29/48/133 51/50/134 52/64/135 41/62/136
f 31/52/137 32/51/138 44/65/139 43/66/140
f 34/53/141 26/44/142 38/58/143 46/67/144
f 25/47/145 33/54/146 45/68/147 37/61/148
f 36/55/149 34/53/150 46/67/151 48/69/152
f 33/54/153 35/56/154 47/70/155 45/68/156
f 32/51/157 36/55/158 48/69/159 44/65/160
f 35/56/161 30/49/162 42/63/163 47/70/164
f 50/16/165 49/15/166 3/71/167 1/22/168
f 51/50/169 50/16/170 1/22/171 31/52/172
f 52/64/173 51/50/174 31/52/175 43/66/176
f 53/34/177 52/33/178 43/72/179 44/73/180
f 54/40/181 53/34/182 44/73/183 48/74/184
f 55/36/185 54/40/186 48/74/187 46/75/188
f 56/18/189 55/36/190 46/75/191 38/76/192
f 57/19/193 56/18/194 38/76/195 39/77/196
f 27/43/197 58/45/198 57/59/199 39/57/200
f 5/25/201 59/5/202 58/45/203 27/43/204
f 5/25/205 7/78/206 60/6/207 59/5/208
