# This file uses centimeters as units for non-parametric coordinates.

mtllib Chair_Banquet_geo.mtl
g default
v 4.185482 -0.827021 4.453913
v 4.185502 -0.827021 -4.430166
v 4.531074 7.603107 4.514965
v 4.365471 7.603107 -4.389167
v -4.531071 7.603107 4.514965
v -4.365473 7.603107 -4.389167
v -4.185500 -0.827021 4.453913
v -4.185500 -0.827021 -4.430171
v 4.185502 -0.827021 -3.501929
v -4.185500 -0.827021 -3.501929
v -4.365473 7.603107 -3.514117
v 4.365471 7.603107 -3.514117
v -3.398278 7.603107 4.514965
v -3.274093 7.603107 -4.389167
v -3.139082 -0.827021 -4.430171
v -3.139122 -0.827021 4.453913
v 3.398285 7.603107 4.514965
v 3.274100 7.603107 -4.389167
v 3.139124 -0.827021 -4.430166
v 3.139124 -0.827021 4.453913
v -4.365473 10.889038 -3.514112
v -3.274093 10.889038 -3.514112
v -3.274093 10.889038 -4.389167
v -4.365473 10.889038 -4.389167
v 3.274100 10.889038 -3.514112
v 3.274100 10.889038 -4.389167
v 4.365471 10.889038 -3.514112
v 4.365471 10.889038 -4.389167
v -5.014655 22.038094 -4.489413
v -3.760983 22.038094 -4.489413
v -3.760983 21.949305 -5.490666
v -5.014655 21.949305 -5.490666
v 3.760989 22.038094 -4.489413
v 3.760995 21.949305 -5.490666
v 5.014657 22.038094 -4.489418
v 5.014657 21.949305 -5.490666
v -4.531071 7.603107 3.277078
v 4.531074 7.603107 3.277078
v -4.185500 -0.827021 3.216026
v 4.185468 -0.827021 3.216026
v -3.139123 -0.827021 3.216026
v -3.398278 7.603107 3.277078
v 3.139124 -0.827021 3.216026
v 3.398280 7.603107 3.277078
v 3.274100 7.603107 -3.514112
v 3.139124 -0.827021 -3.501929
v -3.274093 7.603107 -3.514112
v -3.139082 -0.827021 -3.501929
v -3.398278 8.535065 3.277078
v 3.398285 8.535065 3.277078
v 3.274100 8.535065 -3.514117
v -3.274093 8.535065 -3.514117
v -4.531071 8.535065 3.277078
v -4.365473 8.535065 -3.514117
v 4.531074 8.535065 3.277078
v 4.365471 8.535065 -3.514117
v -3.398278 8.535065 4.514965
v -4.531071 8.535065 4.514965
v 3.398285 8.535065 4.514965
v 4.531074 8.535065 4.514965
v 4.365471 8.535065 -4.389172
v 3.274100 8.535065 -4.389172
v -3.274093 8.535065 -4.389172
v -4.365473 8.535065 -4.389172
v 3.533074 12.193836 -3.794283
v 3.533074 12.139590 -4.406153
v 3.533074 13.348650 -3.896708
v 3.533074 13.294384 -4.508583
v -3.530884 13.348650 -3.896708
v -3.530884 13.294384 -4.508583
v -3.530884 12.193836 -3.794283
v -3.530884 12.139590 -4.406153
v 4.058500 19.678478 -4.400776
v 4.058500 19.616126 -5.103639
v 4.058500 21.005004 -4.518431
v 4.058500 20.942670 -5.221294
v -4.055967 21.005004 -4.518431
v -4.055967 20.942670 -5.221294
v -4.055967 19.678478 -4.400776
v -4.055967 19.616126 -5.103639
v -0.268652 19.746995 -4.590449
v -0.268652 19.716947 -4.928985
v -0.956354 19.746995 -4.590448
v -0.956354 19.716947 -4.928986
v -0.832546 12.850493 -4.012352
v -0.832546 12.824352 -4.307062
v -0.233879 12.850493 -4.012352
v -0.233879 12.824352 -4.307062
v 0.963230 19.746995 -4.590448
v 0.963230 19.716947 -4.928984
v 0.275528 19.746995 -4.590449
v 0.275528 19.716947 -4.928985
v 0.239881 12.850493 -4.012352
v 0.239881 12.824352 -4.307062
v 0.838514 12.850493 -4.012352
v 0.838514 12.824352 -4.307063
v -1.500529 19.746995 -4.590448
v -1.500529 19.716947 -4.928986
v -2.188231 19.746995 -4.590450
v -2.188231 19.716947 -4.928984
v -1.904944 12.850493 -4.012354
v -1.904944 12.824352 -4.307063
v -1.306272 12.850493 -4.012352
v -1.306272 12.824352 -4.307063
v 2.195107 19.746995 -4.590450
v 2.195107 19.716947 -4.928984
v 1.507405 19.746995 -4.590450
v 1.507405 19.716947 -4.928984
v 1.312279 12.850493 -4.012354
v 1.312279 12.824352 -4.307063
v 1.910908 12.850493 -4.012354
v 1.910908 12.824352 -4.307063
v 4.061096 22.387797 -5.250739
v 4.714555 22.387797 -5.250739
v 4.061096 22.427521 -4.802763
v 4.714555 22.427521 -4.802758
v -4.714548 22.387797 -5.250743
v -4.061089 22.387797 -5.250743
v -4.714548 22.427521 -4.802763
v -4.061089 22.427521 -4.802763
v 0.001264 21.489342 -5.221296
v 0.001264 19.616126 -5.103639
v 0.001264 19.678478 -4.400774
v 0.001264 21.551676 -4.518431
v -1.215907 21.464220 -4.518431
v -1.215907 19.678478 -4.400775
v -1.215903 19.616126 -5.103639
v -1.215903 21.401887 -5.221297
v 1.218436 21.401887 -5.221296
v 1.218436 19.616126 -5.103638
v 1.218436 19.678478 -4.400775
v 1.218436 21.464220 -4.518432
vt 0.116692 -0.693678
vt 0.216400 -0.693678
vt 0.216400 -0.966760
vt 0.643385 0.417419
vt 0.863857 0.421683
vt 0.250014 -0.966760
vt -0.814736 -0.966760
vt -0.783600 -0.966760
vt 0.216400 0.306322
vt -0.814736 -0.693678
vt 0.250014 0.033240
vt -0.883308 -0.693678
vt 0.861296 0.642779
vt 0.648553 0.641291
vt 0.151904 0.033240
vt 0.605639 0.417043
vt 0.613330 0.641150
vt 0.185264 0.033240
vt 0.185264 0.306322
vt 0.151904 0.306322
vt 0.151904 -0.693678
vt 0.901231 0.422139
vt 0.896727 0.642070
vt 0.151904 -0.966760
vt -0.783600 0.033240
vt -0.783600 0.306322
vt -0.609693 0.174249
vt -0.658836 0.176849
vt 0.580730 0.266701
vt -0.615268 0.053390
vt -0.569165 0.169848
vt -0.570656 0.053390
vt 0.868707 0.156975
vt 0.430835 0.169848
vt 0.390307 0.174249
vt 0.384732 0.053390
vt 0.429344 0.053390
vt 0.480008 0.168180
vt -0.596968 0.607296
vt -0.649516 0.607947
vt -0.557624 0.605680
vt 0.487820 0.053390
vt 0.644144 0.376167
vt 0.605918 0.374933
vt 0.863523 0.380781
vt 0.902083 0.379808
vt 0.582370 0.642422
vt 0.574396 0.417629
vt 0.932235 0.423600
vt 0.927585 0.642898
vt 0.606925 0.343084
vt 0.644899 0.345252
vt 0.862918 0.349765
vt 0.933879 0.382451
vt -0.814736 0.306322
vt -0.814736 0.033240
vt 0.216400 0.033240
vt 0.216400 0.306322
vt -0.883308 0.306322
vt -0.749986 0.033240
vt 0.116692 0.306322
vt 0.250014 0.033240
vt -0.848096 0.306322
vt -0.848096 0.033240
vt 0.185264 -0.966760
vt 0.185264 -0.693678
vt -0.848096 -0.966760
vt -0.848096 -0.693678
vt 0.818258 0.859953
vt 0.818943 0.882587
vt 0.780016 0.883556
vt 0.779964 0.860198
vt 0.775753 0.801805
vt 0.776333 0.942691
vt 0.814903 0.775468
vt 0.816185 0.799198
vt 0.857980 0.881094
vt 0.857905 0.775304
vt 0.894313 0.671845
vt 0.644206 0.655344
vt 0.701458 0.694117
vt 0.692894 0.654380
vt 0.802865 0.694059
vt 0.794301 0.654322
vt 0.851553 0.693094
vt 0.585163 0.672456
vt -0.693999 0.175692
vt -0.509580 0.634807
vt -0.506602 0.602548
vt 0.578021 0.123721
vt -0.512180 0.053390
vt 0.357010 0.669966
vt 0.490420 0.634807
vt 0.439973 0.635022
vt 0.306001 0.175692
vt 0.493398 0.602548
vt 0.639215 0.863409
vt 0.638960 0.891268
vt 0.327269 0.889486
vt 0.327307 0.861885
vt 0.327674 0.810655
vt 0.327737 0.783110
vt 0.638392 0.942842
vt 0.639278 0.811304
vt -0.862918 -0.629600
vt -0.770513 -0.254095
vt -0.862917 0.370400
vt -0.770513 0.745905
vt 0.137082 -0.629600
vt 0.229487 -0.254095
vt 0.857576 0.798913
vt 0.856721 0.857681
vt 0.681429 0.813539
vt 0.686313 0.858599
vt 0.678771 0.789714
vt 0.685705 0.882655
vt 0.962312 0.919861
vt 0.953124 0.874728
vt 0.953326 0.804427
vt 0.951214 0.850300
vt 0.250014 -0.693678
vt 0.116692 -0.966760
vt 0.250014 0.306322
vt -0.883308 -0.966760
vt -0.843709 -0.254095
vt -0.862917 -0.254095
vt -0.770513 -0.629600
vt -0.843709 -0.629600
vt -0.817457 -0.629600
vt -0.794524 -0.629600
vt -0.794524 -0.254095
vt -0.817457 -0.254095
vt -0.843709 0.745905
vt -0.862918 0.745905
vt -0.770513 0.370400
vt -0.843709 0.370400
vt -0.817457 0.370400
vt -0.794524 0.370400
vt -0.794524 0.745905
vt -0.817457 0.745905
vt 0.156291 -0.254095
vt 0.137082 -0.254095
vt 0.229487 -0.629600
vt 0.156291 -0.629600
vt 0.182543 -0.629600
vt 0.205476 -0.629600
vt 0.205476 -0.254095
vt 0.182543 -0.254095
vt 0.156291 0.745905
vt 0.137082 0.745905
vt 0.229487 0.370400
vt 0.156291 0.370400
vt 0.182543 0.370400
vt 0.205476 0.370400
vt 0.205476 0.745905
vt 0.182543 0.745905
vt 0.678699 0.926941
vt 0.820595 0.944969
vt 0.773968 0.777999
vt 0.954269 0.780339
vt 0.864827 0.940973
vt 0.250014 0.306322
vt 0.116692 0.033240
vt -0.883308 0.033240
vt -0.749986 0.306322
vt 0.350484 0.607947
vt 0.442376 0.605680
vt -0.519992 0.168180
vt -0.689736 0.608567
vt 0.403032 0.607296
vt 0.867973 0.118228
vt 0.310264 0.608567
vt 0.229487 0.745905
vt 0.137082 0.370400
vt 0.327164 0.941245
vt 0.639204 0.783381
vt 0.404436 0.637944
vt 0.357485 0.638276
vt -0.642515 0.638276
vt -0.595564 0.637944
vt -0.560027 0.635022
vt -0.684354 0.641262
vt 0.576047 0.019488
vt 0.865999 0.013995
vt 0.216400 0.033240
vt 0.331286 0.053390
vt 0.315646 0.641262
vt -0.783600 -0.693678
vt -0.642990 0.669966
vt -0.596921 0.670156
vt 0.341164 0.176849
vt 0.403079 0.670156
vt 0.578755 0.162468
vt 0.870682 0.261208
vt -0.668714 0.053390
vt 0.854728 0.655193
vt 0.617236 0.669830
vt 0.927227 0.672782
vt 0.641031 0.693246
vt 0.574372 0.374778
vt 0.900032 0.347361
vn 0.999772 -0.021343 0.000000
vn 0.999772 -0.021343 0.000000
vn 0.999772 -0.021343 0.000000
vn 0.999772 -0.021343 0.000000
vn -0.999772 -0.021344 0.000000
vn -0.999772 -0.021344 0.000000
vn -0.999772 -0.021344 0.000000
vn -0.999772 -0.021344 0.000000
vn 0.000000 0.004864 -0.999988
vn 0.000000 0.004864 -0.999988
vn 0.000000 0.004864 -0.999988
vn 0.000000 0.004864 -0.999988
vn 0.000000 -0.007242 0.999974
vn 0.000000 -0.007242 0.999974
vn 0.000000 -0.007242 0.999974
vn 0.000000 -0.007242 0.999974
vn 0.000000 1.000000 0.000000
vn 0.000000 1.000000 0.000000
vn 0.000000 1.000000 0.000000
vn 0.000000 1.000000 0.000000
vn 0.000000 0.004863 -0.999988
vn 0.000000 0.004863 -0.999988
vn 0.000000 0.004863 -0.999988
vn 0.000000 0.004863 -0.999988
vn 0.000000 -0.007242 0.999974
vn 0.000000 -0.007242 0.999974
vn 0.000000 -0.007242 0.999974
vn 0.000000 -0.007242 0.999974
vn 0.000000 0.000002 -1.000000
vn 0.000000 0.000002 -1.000000
vn 0.000000 0.000002 -1.000000
vn 0.000000 0.000002 -1.000000
vn -1.000000 -0.000000 0.000000
vn -1.000000 -0.000000 0.000000
vn -1.000000 -0.000000 0.000000
vn -1.000000 -0.000000 0.000000
vn 0.000000 0.000002 -1.000000
vn 0.000000 0.000002 -1.000000
vn 0.000000 0.000002 -1.000000
vn 0.000000 0.000002 -1.000000
vn 1.000000 0.000000 0.000000
vn 1.000000 0.000000 0.000000
vn 1.000000 0.000000 0.000000
vn 1.000000 0.000000 0.000000
vn 0.000000 0.000002 -1.000000
vn 0.000000 0.000002 -1.000000
vn 0.000000 0.000002 -1.000000
vn 0.000000 0.000002 -1.000000
vn 0.000000 -0.099100 -0.995077
vn 0.000000 -0.099100 -0.995077
vn 0.000000 -0.099100 -0.995077
vn 0.000000 -0.099100 -0.995077
vn -0.998307 -0.058104 0.002750
vn -0.998307 -0.058104 0.002750
vn -0.998307 -0.058104 0.002750
vn -0.998307 -0.058104 0.002750
vn 0.998307 -0.058105 0.002750
vn 0.998307 -0.058105 0.002750
vn 0.998307 -0.058105 0.002750
vn 0.998307 -0.058105 0.002750
vn 0.000000 -0.099100 -0.995077
vn 0.000000 -0.099100 -0.995077
vn 0.000000 -0.099100 -0.995077
vn 0.000000 -0.099100 -0.995077
vn 0.000000 0.087146 0.996196
vn 0.000000 0.087146 0.996196
vn 0.000000 0.087146 0.996196
vn 0.000000 0.087146 0.996196
vn 0.000002 0.087146 0.996196
vn 0.000002 0.087146 0.996196
vn 0.000002 0.087146 0.996196
vn 0.000002 0.087146 0.996196
vn 0.000000 0.996091 -0.088332
vn 0.000000 0.996091 -0.088332
vn 0.000000 0.996091 -0.088332
vn 0.000000 0.996091 -0.088332
vn 0.000000 0.996091 -0.088330
vn 0.000000 0.996091 -0.088330
vn 0.000000 0.996091 -0.088330
vn 0.000000 0.996091 -0.088330
vn 0.999046 0.043611 -0.002064
vn 0.999046 0.043611 -0.002064
vn 0.999046 0.043611 -0.002064
vn 0.999046 0.043611 -0.002064
vn -0.999046 0.043611 -0.002066
vn -0.999046 0.043611 -0.002066
vn -0.999046 0.043611 -0.002066
vn -0.999046 0.043611 -0.002066
vn 0.000000 1.000000 0.000000
vn 0.000000 1.000000 0.000000
vn 0.000000 1.000000 0.000000
vn 0.000000 1.000000 0.000000
vn 0.000000 1.000000 -0.000000
vn 0.000000 1.000000 -0.000000
vn 0.000000 1.000000 -0.000000
vn 0.000000 1.000000 -0.000000
vn 0.000000 1.000000 -0.000000
vn 0.000000 1.000000 -0.000000
vn 0.000000 1.000000 -0.000000
vn 0.000000 1.000000 -0.000000
vn 0.000000 1.000000 0.000000
vn 0.000000 1.000000 0.000000
vn 0.000000 1.000000 0.000000
vn 0.000000 1.000000 0.000000
vn 0.000000 1.000000 0.000000
vn 0.000000 1.000000 0.000000
vn 0.000000 1.000000 0.000000
vn 0.000000 1.000000 0.000000
vn 0.000000 1.000000 0.000000
vn 0.000000 1.000000 0.000000
vn 0.000000 1.000000 0.000000
vn 0.000000 1.000000 0.000000
vn -0.999161 -0.040958 0.000000
vn -0.999161 -0.040958 0.000000
vn -0.999161 -0.040958 0.000000
vn -0.999161 -0.040958 0.000000
vn 0.999161 -0.040961 -0.000006
vn 0.999161 -0.040961 -0.000006
vn 0.999161 -0.040961 -0.000006
vn 0.999161 -0.040961 -0.000006
vn 0.999528 0.030727 -0.000000
vn 0.999528 0.030727 -0.000000
vn 0.999528 0.030727 -0.000000
vn 0.999528 0.030727 -0.000000
vn -0.999528 0.030727 0.000002
vn -0.999528 0.030727 0.000002
vn -0.999528 0.030727 0.000002
vn -0.999528 0.030727 0.000002
vn -0.999872 0.016009 0.000000
vn -0.999872 0.016009 0.000000
vn -0.999872 0.016009 0.000000
vn -0.999872 0.016009 0.000000
vn 0.999872 0.016013 0.000000
vn 0.999872 0.016013 0.000000
vn 0.999872 0.016013 0.000000
vn 0.999872 0.016013 0.000000
vn -0.999703 0.000000 -0.024377
vn -0.999703 0.000000 -0.024377
vn -0.999703 0.000000 -0.024377
vn -0.999703 0.000000 -0.024377
vn 0.999703 0.000000 -0.024378
vn 0.999703 0.000000 -0.024378
vn 0.999703 0.000000 -0.024378
vn 0.999703 0.000000 -0.024378
vn -1.000000 0.000000 0.000000
vn -1.000000 0.000000 0.000000
vn -1.000000 0.000000 0.000000
vn -1.000000 0.000000 0.000000
vn 0.000000 0.000000 1.000000
vn 0.000000 0.000000 1.000000
vn 0.000000 0.000000 1.000000
vn 0.000000 0.000000 1.000000
vn 0.000000 0.000000 1.000000
vn 0.000000 0.000000 1.000000
vn 0.000000 0.000000 1.000000
vn 0.000000 0.000000 1.000000
vn 0.000000 0.000000 1.000000
vn 0.000000 0.000000 1.000000
vn 0.000000 0.000000 1.000000
vn 0.000000 0.000000 1.000000
vn 1.000000 0.000000 0.000000
vn 1.000000 0.000000 0.000000
vn 1.000000 0.000000 0.000000
vn 1.000000 0.000000 0.000000
vn 1.000000 -0.000000 0.000000
vn 1.000000 -0.000000 0.000000
vn 1.000000 -0.000000 0.000000
vn 1.000000 -0.000000 0.000000
vn 0.000000 -0.000005 -1.000000
vn 0.000000 -0.000005 -1.000000
vn 0.000000 -0.000005 -1.000000
vn 0.000000 -0.000005 -1.000000
vn 0.000000 -0.000005 -1.000000
vn 0.000000 -0.000005 -1.000000
vn 0.000000 -0.000005 -1.000000
vn 0.000000 -0.000005 -1.000000
vn 0.000000 -0.000005 -1.000000
vn 0.000000 -0.000005 -1.000000
vn 0.000000 -0.000005 -1.000000
vn 0.000000 -0.000005 -1.000000
vn -1.000000 0.000000 0.000000
vn -1.000000 0.000000 0.000000
vn -1.000000 0.000000 0.000000
vn -1.000000 0.000000 0.000000
vn -0.000002 0.001445 0.999999
vn -0.000002 0.001445 0.999999
vn -0.000002 0.001445 0.999999
vn -0.000002 0.001445 0.999999
vn 0.000002 0.001445 0.999999
vn 0.000002 0.001445 0.999999
vn 0.000002 0.001445 0.999999
vn 0.000002 0.001445 0.999999
vn 0.000000 0.007242 -0.999974
vn 0.000000 0.007242 -0.999974
vn 0.000000 0.007242 -0.999974
vn 0.000000 0.007242 -0.999974
vn 0.000000 0.007242 -0.999974
vn 0.000000 0.007242 -0.999974
vn 0.000000 0.007242 -0.999974
vn 0.000000 0.007242 -0.999974
vn 0.000000 0.996090 -0.088341
vn 0.000000 0.996090 -0.088341
vn 0.000000 0.996090 -0.088341
vn 0.000000 0.996090 -0.088341
vn 0.000000 -0.996093 0.088310
vn 0.000000 -0.996093 0.088310
vn 0.000000 -0.996093 0.088310
vn 0.000000 -0.996093 0.088310
vn 0.000000 -0.088353 -0.996089
vn 0.000000 -0.088353 -0.996089
vn 0.000000 -0.088353 -0.996089
vn 0.000000 -0.088353 -0.996089
vn 0.000000 0.088347 0.996090
vn 0.000000 0.088347 0.996090
vn 0.000000 0.088347 0.996090
vn 0.000000 0.088347 0.996090
vn -0.071388 0.993549 -0.088114
vn -0.071388 0.993549 -0.088114
vn -0.071388 0.993549 -0.088114
vn -0.071388 0.993549 -0.088114
vn 0.000000 -0.996088 0.088365
vn 0.000000 -0.996088 0.088365
vn 0.000000 -0.996088 0.088365
vn 0.000000 -0.996088 0.088365
vn 0.002306 -0.064179 -0.997936
vn 0.002306 -0.064179 -0.997936
vn 0.002306 -0.064179 -0.997936
vn 0.002306 -0.064179 -0.997936
vn -0.002306 0.064179 0.997936
vn -0.002306 0.064179 0.997936
vn -0.002306 0.064179 0.997936
vn -0.002306 0.064179 0.997936
vn -0.999840 -0.017817 0.001581
vn -0.999840 -0.017817 0.001581
vn -0.999840 -0.017817 0.001581
vn -0.999840 -0.017817 0.001581
vn 0.999987 0.005005 -0.000444
vn 0.999987 0.005005 -0.000444
vn 0.999987 0.005005 -0.000444
vn 0.999987 0.005005 -0.000444
vn 0.000001 -0.089866 -0.995954
vn 0.000001 -0.089866 -0.995954
vn 0.000001 -0.089866 -0.995954
vn 0.000001 -0.089866 -0.995954
vn 0.000001 0.083532 0.996505
vn 0.000001 0.083532 0.996505
vn 0.000001 0.083532 0.996505
vn 0.000001 0.083532 0.996505
vn -0.999987 0.005131 -0.000455
vn -0.999987 0.005131 -0.000455
vn -0.999987 0.005131 -0.000455
vn -0.999987 0.005131 -0.000455
vn 0.999838 -0.017948 0.001592
vn 0.999838 -0.017948 0.001592
vn 0.999838 -0.017948 0.001592
vn 0.999838 -0.017948 0.001592
vn 0.000001 -0.089865 -0.995954
vn 0.000001 -0.089865 -0.995954
vn 0.000001 -0.089865 -0.995954
vn 0.000001 -0.089865 -0.995954
vn -0.000001 0.083532 0.996505
vn -0.000001 0.083532 0.996505
vn -0.000001 0.083532 0.996505
vn -0.000001 0.083532 0.996505
vn -0.999163 -0.040740 0.003615
vn -0.999163 -0.040740 0.003615
vn -0.999163 -0.040740 0.003615
vn -0.999163 -0.040740 0.003615
vn 0.999606 0.027949 -0.002480
vn 0.999606 0.027949 -0.002480
vn 0.999606 0.027949 -0.002480
vn 0.999606 0.027949 -0.002480
vn -0.000001 -0.089866 -0.995954
vn -0.000001 -0.089866 -0.995954
vn -0.000001 -0.089866 -0.995954
vn -0.000001 -0.089866 -0.995954
vn -0.000002 0.083532 0.996505
vn -0.000002 0.083532 0.996505
vn -0.000002 0.083532 0.996505
vn -0.000002 0.083532 0.996505
vn -0.999603 0.028074 -0.002491
vn -0.999603 0.028074 -0.002491
vn -0.999603 0.028074 -0.002491
vn -0.999603 0.028074 -0.002491
vn 0.999158 -0.040871 0.003626
vn 0.999158 -0.040871 0.003626
vn 0.999158 -0.040871 0.003626
vn 0.999158 -0.040871 0.003626
vn 0.000000 -0.089865 -0.995954
vn 0.000000 -0.089865 -0.995954
vn 0.000000 -0.089865 -0.995954
vn 0.000000 -0.089865 -0.995954
vn 0.000000 0.083532 0.996505
vn 0.000000 0.083532 0.996505
vn 0.000000 0.083532 0.996505
vn 0.000000 0.083532 0.996505
vn 0.000000 0.480008 -0.877264
vn 0.000000 0.480008 -0.877264
vn 0.000000 0.480008 -0.877264
vn 0.000000 0.480008 -0.877264
vn -0.810716 0.583151 -0.051715
vn -0.810716 0.583151 -0.051715
vn -0.810716 0.583151 -0.051715
vn -0.810716 0.583151 -0.051715
vn 0.000000 0.626892 0.779106
vn 0.000000 0.626892 0.779106
vn 0.000000 0.626892 0.779106
vn 0.000000 0.626892 0.779106
vn 0.810719 0.583148 -0.051712
vn 0.810719 0.583148 -0.051712
vn 0.810719 0.583148 -0.051712
vn 0.810719 0.583148 -0.051712
vn 0.000000 0.480001 -0.877268
vn 0.000000 0.480001 -0.877268
vn 0.000000 0.480001 -0.877268
vn 0.000000 0.480001 -0.877268
vn -0.810714 0.583154 -0.051713
vn -0.810714 0.583154 -0.051713
vn -0.810714 0.583154 -0.051713
vn -0.810714 0.583154 -0.051713
vn 0.000000 0.626897 0.779102
vn 0.000000 0.626897 0.779102
vn 0.000000 0.626897 0.779102
vn 0.000000 0.626897 0.779102
vn 0.810715 0.583153 -0.051713
vn 0.810715 0.583153 -0.051713
vn 0.810715 0.583153 -0.051713
vn 0.810715 0.583153 -0.051713
vn -0.002305 -0.064179 -0.997936
vn -0.002305 -0.064179 -0.997936
vn -0.002305 -0.064179 -0.997936
vn -0.002305 -0.064179 -0.997936
vn -0.000000 -0.996088 0.088362
vn -0.000000 -0.996088 0.088362
vn -0.000000 -0.996088 0.088362
vn -0.000000 -0.996088 0.088362
vn 0.002306 0.064179 0.997936
vn 0.002306 0.064179 0.997936
vn 0.002306 0.064179 0.997936
vn 0.002306 0.064179 0.997936
vn 0.071388 0.993549 -0.088114
vn 0.071388 0.993549 -0.088114
vn 0.071388 0.993549 -0.088114
vn 0.071388 0.993549 -0.088114
vn -0.006095 0.075391 0.997135
vn -0.006095 0.075391 0.997135
vn -0.006095 0.075391 0.997135
vn -0.006095 0.075391 0.997135
vn -0.000000 -0.996088 0.088365
vn -0.000000 -0.996088 0.088365
vn -0.000000 -0.996088 0.088365
vn -0.000000 -0.996088 0.088365
vn 0.006095 -0.075391 -0.997135
vn 0.006095 -0.075391 -0.997135
vn 0.006095 -0.075391 -0.997135
vn 0.006095 -0.075391 -0.997135
vn -0.159011 0.983417 -0.087217
vn -0.159011 0.983417 -0.087217
vn -0.159011 0.983417 -0.087217
vn -0.159011 0.983417 -0.087217
vn -0.006095 -0.075391 -0.997135
vn -0.006095 -0.075391 -0.997135
vn -0.006095 -0.075391 -0.997135
vn -0.006095 -0.075391 -0.997135
vn 0.000000 -0.996088 0.088365
vn 0.000000 -0.996088 0.088365
vn 0.000000 -0.996088 0.088365
vn 0.000000 -0.996088 0.088365
vn 0.006095 0.075391 0.997135
vn 0.006095 0.075391 0.997135
vn 0.006095 0.075391 0.997135
vn 0.006095 0.075391 0.997135
vn 0.159011 0.983417 -0.087217
vn 0.159011 0.983417 -0.087217
vn 0.159011 0.983417 -0.087217
vn 0.159011 0.983417 -0.087217
vn 0.000000 -0.000002 1.000000
vn 0.000000 -0.000002 1.000000
vn 0.000000 -0.000002 1.000000
vn 0.000000 -0.000002 1.000000
vn 0.000000 -0.000002 1.000000
vn 0.000000 -0.000002 1.000000
vn 0.000000 -0.000002 1.000000
vn 0.000000 -0.000002 1.000000
vn 0.000000 -0.000002 1.000000
vn 0.000000 -0.000002 1.000000
vn 0.000000 -0.000002 1.000000
vn 0.000000 -0.000002 1.000000
s off
g REDO:Cube
usemtl REDO:unwrapChekcerShaderSG
f 4/121/1 12/2/2 9/3/3 2/6/4
f 11/7/5 6/8/6 8/188/7 10/10/8
f 6/185/9 14/11/10 15/123/11 8/9/12
f 13/15/13 5/18/14 7/19/15 16/20/16
f 49/4/17 50/5/18 51/13/19 52/14/20
f 18/21/21 4/1/22 2/122/23 19/24/24
f 1/25/25 3/26/26 17/55/27 20/56/28
f 24/27/29 23/28/30 63/195/31 64/30/32
f 21/31/33 24/27/34 64/30/35 54/32/36
f 23/193/37 26/33/38 62/194/39 63/29/40
f 28/34/41 27/35/42 56/36/43 61/37/44
f 26/38/45 28/34/46 61/37/47 62/42/48
f 32/39/49 31/40/50 23/28/51 24/27/52
f 29/41/53 32/39/54 24/27/55 21/31/56
f 36/167/57 35/170/58 27/35/59 28/34/60
f 26/38/61 34/96/62 36/167/63 28/34/64
f 22/168/65 30/89/66 29/41/67 21/31/68
f 27/35/69 35/170/70 33/166/71 25/191/72
f 114/192/73 113/92/74 115/178/75 116/177/76
f 118/179/77 117/180/78 119/190/79 120/189/80
f 23/28/81 31/40/82 30/169/83 22/87/84
f 25/191/85 33/166/86 34/172/87 26/95/88
f 22/90/89 25/171/90 26/33/91 23/193/92
f 53/16/93 49/4/94 52/14/95 54/17/96
f 51/13/97 50/5/98 55/22/99 56/23/100
f 57/43/101 49/4/102 53/16/103 58/44/104
f 59/45/105 50/5/106 49/4/107 57/43/108
f 55/22/109 50/5/110 59/45/111 60/46/112
f 5/18/113 37/57/114 39/58/115 7/19/116
f 38/165/117 3/26/118 1/25/119 40/60/120
f 13/15/121 16/20/122 41/61/123 42/163/124
f 20/56/125 17/55/126 44/63/127 43/64/128
f 18/21/129 19/24/130 46/65/131 45/66/132
f 15/12/133 14/124/134 47/67/135 48/68/136
f 11/47/137 37/48/138 53/16/139 54/17/140
f 38/49/141 12/50/142 56/23/143 55/22/144
f 37/48/145 5/200/146 58/44/147 53/16/148
f 5/51/149 13/52/150 57/43/151 58/44/152
f 13/52/153 17/53/154 59/45/155 57/43/156
f 17/53/157 3/201/158 60/46/159 59/45/160
f 3/54/161 38/49/162 55/22/163 60/46/164
f 61/79/165 56/23/166 12/50/167 4/198/168
f 62/81/169 61/199/170 4/80/171 18/82/172
f 63/83/173 62/81/174 18/82/175 14/84/176
f 64/85/177 63/83/178 14/84/179 6/196/180
f 54/17/181 64/197/182 6/86/183 11/47/184
f 11/7/185 10/10/186 48/68/187 47/67/188
f 9/3/189 12/2/190 45/66/191 46/65/192
f 38/59/193 40/164/194 43/64/195 44/63/196
f 39/58/197 37/57/198 42/62/199 41/162/200
f 67/97/201 68/98/202 70/99/203 69/100/204
f 71/101/205 72/102/206 66/176/207 65/104/208
f 66/103/209 72/175/210 70/99/211 68/98/212
f 71/101/213 65/104/214 67/97/215 69/100/216
f 124/69/217 121/70/218 128/71/219 125/72/220
f 126/73/221 127/159/222 122/75/223 123/76/224
f 121/70/225 122/158/226 127/74/227 128/71/228
f 125/72/229 126/73/230 123/76/231 124/69/232
f 83/125/233 84/126/234 86/105/235 85/128/236
f 87/129/237 88/130/238 82/131/239 81/132/240
f 82/131/241 88/130/242 86/127/243 84/106/244
f 87/129/245 81/132/246 83/125/247 85/128/248
f 91/133/249 92/134/250 94/107/251 93/136/252
f 95/137/253 96/138/254 90/139/255 89/140/256
f 90/139/257 96/138/258 94/135/259 92/108/260
f 95/137/261 89/140/262 91/133/263 93/136/264
f 99/141/265 100/142/266 102/109/267 101/144/268
f 103/145/269 104/146/270 98/147/271 97/148/272
f 98/147/273 104/146/274 102/143/275 100/110/276
f 103/145/277 97/148/278 99/141/279 101/144/280
f 107/149/281 108/150/282 110/174/283 109/152/284
f 111/153/285 112/154/286 106/155/287 105/156/288
f 106/155/289 112/154/290 110/151/291 108/173/292
f 111/153/293 105/156/294 107/149/295 109/152/296
f 36/167/297 34/96/298 113/93/299 114/94/300
f 34/172/301 33/166/302 115/178/303 113/187/304
f 33/166/305 35/170/306 116/177/307 115/178/308
f 35/170/309 36/167/310 114/94/311 116/177/312
f 31/40/313 32/39/314 117/180/315 118/179/316
f 32/39/317 29/41/318 119/181/319 117/180/320
f 29/41/321 30/89/322 120/88/323 119/181/324
f 30/169/325 31/40/326 118/179/327 120/182/328
f 129/77/329 130/161/330 122/158/331 121/70/332
f 123/76/333 122/75/334 130/78/335 131/111/336
f 124/69/337 123/76/338 131/111/339 132/112/340
f 132/112/341 129/77/342 121/70/343 124/69/344
f 79/113/345 126/73/346 125/72/347 77/114/348
f 79/113/349 80/115/350 127/159/351 126/73/352
f 128/71/353 127/74/354 80/157/355 78/116/356
f 125/72/357 128/71/358 78/116/359 77/114/360
f 74/117/361 130/161/362 129/77/363 76/118/364
f 131/111/365 130/78/366 74/160/367 73/119/368
f 132/112/369 131/111/370 73/119/371 75/120/372
f 75/120/373 76/118/374 129/77/375 132/112/376
f 52/183/377 51/184/378 25/171/379 22/90/380
f 27/35/381 25/191/382 51/186/383 56/36/384
f 22/168/385 21/31/386 54/32/387 52/91/388
