# This file uses centimeters as units for non-parametric coordinates.

mtllib Cheese_Banquet_geo.mtl
g default
v 0.111259 0.000000 -0.016159
v -0.059182 2.714623 -0.026571
v 3.289667 0.474182 -1.045720
v 2.992349 0.031542 -0.941279
v 2.808753 0.475087 -1.982326
v 2.558289 0.059315 -1.783526
v 2.050434 0.470805 -2.732392
v 1.875006 0.078729 -2.458036
v 1.090274 0.454269 -3.221999
v 1.012220 0.071553 -2.897746
v 0.031527 0.418792 -3.398509
v 0.062109 0.032540 -3.055663
v -1.012590 0.368266 -3.239509
v -0.875599 -0.019510 -2.912281
v -1.945619 0.316369 -2.763373
v -1.714556 -0.066175 -2.484150
v -2.686072 0.275184 -2.021773
v -2.380356 -0.103207 -1.817321
v -3.151626 0.241740 -1.082238
v -2.800106 -0.126661 -0.972929
v -3.314021 0.231623 -0.045642
v -2.945391 -0.134769 -0.040422
v -3.150211 0.240735 0.990226
v -2.798098 -0.126577 0.891004
v -2.666757 0.261454 1.928837
v -2.364343 -0.102536 1.734629
v -1.905997 0.283608 2.680734
v -1.681802 -0.078217 2.410038
v -0.949792 0.302960 3.168312
v -0.822351 -0.071130 2.847965
v 0.101002 0.324477 3.340154
v 0.123548 -0.076109 3.002315
v 1.140785 0.354658 3.178222
v 1.060125 -0.075932 2.856786
v 2.074593 0.392346 2.702086
v 1.900262 -0.050551 2.428656
v 3.454263 0.469085 -0.009852
v 3.140827 0.018451 -0.009852
v 3.173740 2.538803 -1.046303
v 2.824173 3.007634 -0.942694
v 2.687166 2.515857 -1.986648
v 2.383172 2.992867 -1.789922
v 1.925435 2.446332 -2.740485
v 1.694531 2.936003 -2.469569
v 0.965258 2.357844 -3.232243
v 0.829742 2.834468 -2.913164
v -0.096682 2.328897 -3.410275
v -0.123396 2.771548 -3.073416
v -1.144535 2.311967 -3.252272
v -1.063216 2.730435 -2.930836
v -2.077564 2.260070 -2.776136
v -1.902173 2.683771 -2.502705
v -2.818027 2.218884 -2.034536
v -2.567973 2.646738 -1.835877
v -3.290444 2.181925 -1.098783
v -2.995441 2.622961 -0.995625
v -3.454254 2.172813 -0.062914
v -3.142735 2.614769 -0.064197
v -3.290444 2.181925 0.972954
v -2.995441 2.622961 0.867230
v -2.803095 2.173521 1.912783
v -2.558143 2.636124 1.712426
v -2.036312 2.190892 2.667770
v -1.869194 2.684349 2.391981
v -1.076135 2.279380 3.159527
v -1.004401 2.785884 2.835577
v -0.020586 2.365193 3.335831
v -0.051569 2.857370 2.995918
v 1.024852 2.419279 3.177640
v 0.891949 2.900161 2.855371
v 1.958628 2.477294 2.702086
v 1.733478 2.948035 2.428656
v 3.338297 2.554034 -0.009852
v 2.974039 3.017037 -0.009852
v 3.233884 1.467897 -1.045994
v 3.398205 1.477037 -0.009852
v 3.060743 1.458267 -0.009852
v 1.828927 1.769233 2.447835
v 1.992513 1.868078 2.702086
v 1.757050 1.456785 2.339808
v 1.991722 1.398806 -2.736188
v 1.031732 1.345410 -3.226804
v -0.027042 1.286520 -3.404028
v -1.071615 1.228419 -3.245496
v -2.004644 1.176522 -2.769360
v -2.745102 1.135338 -2.027760
v -3.214370 1.109236 -1.089999
v -3.377467 1.100164 -0.053744
v -3.213652 1.109275 0.982126
v -2.729479 1.136206 1.921306
v -1.967145 1.178608 2.674654
v -1.009162 1.231892 3.164194
v 0.043485 1.290442 3.338125
v 1.084992 1.348373 3.177949
v 2.030856 1.178712 2.702086
v 1.860683 1.250465 2.455627
v 0.030396 1.289714 -0.021043
v 2.751237 1.441052 -1.984353
v 1.746847 -0.055186 2.506837
v 1.904074 0.385463 2.789034
v 1.837573 1.232115 2.788996
v 1.735091 1.433289 2.914069
v 1.807649 1.768947 2.788962
v 1.788109 2.466700 2.788927
v 1.579806 2.939292 2.506579
vt 0.075544 0.673560
vt 0.072625 0.644220
vt 0.130722 0.647808
vt 0.131059 0.676379
vt 0.021595 0.675585
vt 0.010717 0.646827
vt 0.188157 0.652560
vt 0.187930 0.680369
vt 0.245421 0.656349
vt 0.245320 0.684040
vt 0.358740 0.659288
vt 0.358974 0.687857
vt 0.414843 0.659791
vt 0.415009 0.688433
vt 0.470992 0.660120
vt 0.471055 0.688775
vt 0.527175 0.660024
vt 0.527162 0.688339
vt 0.583333 0.659785
vt 0.583306 0.688035
vt 0.639439 0.659323
vt 0.639401 0.687488
vt 0.695830 0.658481
vt 0.695876 0.686295
vt 0.752802 0.656588
vt 0.753084 0.684072
vt 0.810051 0.653136
vt 0.810458 0.680923
vt 0.867309 0.648793
vt 0.867255 0.677597
vt 0.924807 0.645479
vt 0.922579 0.675608
vt 0.974447 0.648127
vt 0.965549 0.675869
vt 0.071781 0.787073
vt 0.066644 0.819601
vt 1.000806 0.641237
vt 0.020430 0.781137
vt 0.127870 0.789912
vt 0.125841 0.822813
vt 0.185607 0.790016
vt 0.184747 0.823202
vt 0.243507 0.821494
vt 0.301747 0.791579
vt 0.301360 0.821907
vt 0.358523 0.794363
vt 0.358173 0.823361
vt 0.414664 0.794982
vt 0.414561 0.824005
vt 0.470826 0.795284
vt 0.470888 0.824293
vt 0.526971 0.794811
vt 0.527171 0.824209
vt 0.583129 0.794517
vt 0.583418 0.823909
vt 0.639271 0.793935
vt 0.639697 0.823322
vt 0.695869 0.791420
vt 0.696483 0.821919
vt 0.753492 0.789286
vt 0.754163 0.821437
vt 0.811581 0.790151
vt 0.812290 0.823186
vt 0.869107 0.790528
vt 0.870445 0.823168
vt 0.925330 0.788917
vt 0.928682 0.821074
vt 0.968362 0.785852
vt 0.977724 0.817421
vt 0.962817 0.732227
vt 0.969928 0.749749
vt 0.924269 0.729826
vt 0.829612 0.560889
vt 0.991866 0.749317
vt 0.998851 0.732492
vt 0.130782 0.730052
vt 0.187310 0.731889
vt 0.074923 0.727754
vt 0.018625 0.726357
vt 0.991676 0.558503
vt 0.829883 0.640486
vt 0.989661 0.813930
vt 0.977246 0.784245
vt 0.977508 0.757430
vt 0.867672 0.731134
vt 0.810715 0.732278
vt 0.753213 0.733421
vt 0.695874 0.734380
vt 0.639316 0.735135
vt 0.583193 0.735688
vt 0.527072 0.735951
vt 0.470955 0.735911
vt 0.414845 0.735587
vt 0.358724 0.735021
vt 0.302134 0.734296
vt 0.244744 0.733298
vt 0.969549 0.720812
vt 0.991334 0.720991
vt 0.978232 0.713584
vt 0.973717 0.677091
vt 0.986397 0.651458
vt 0.828656 0.489151
vt 0.539503 0.049840
vt 0.450391 0.142043
vt 0.487678 0.088692
vt 0.636165 0.234051
vt 0.431285 0.205156
vt 0.432231 0.271645
vt 0.453143 0.334444
vt 0.491977 0.386859
vt 0.544926 0.424137
vt 0.606802 0.443228
vt 0.671553 0.441665
vt 0.732835 0.420587
vt 0.784653 0.381754
vt 0.821939 0.328319
vt 0.841037 0.265189
vt 0.840077 0.198960
vt 0.819150 0.136565
vt 0.737022 0.053860
vt 0.106280 0.521495
vt 0.780308 0.084345
vt 0.059935 0.476092
vt 0.029877 0.417792
vt 0.226214 0.349948
vt 0.019170 0.352107
vt 0.028847 0.285708
vt 0.057718 0.225794
vt 0.102972 0.178673
vt 0.160270 0.148505
vt 0.224085 0.137514
vt 0.288174 0.146776
vt 0.346266 0.175384
vt 0.392678 0.220539
vt 0.422769 0.278549
vt 0.433573 0.344196
vt 0.424150 0.410633
vt 0.395361 0.470609
vt 0.292775 0.548446
vt 0.350069 0.518020
vt 0.303237 0.542890
vt 0.727352 0.047050
vt 0.302382 0.658401
vt 0.243872 0.789263
vt 0.302548 0.686569
vt 0.000906 0.725671
vt 0.997886 0.479293
vt 0.663623 0.555502
vt 0.671139 0.567003
vt 0.998851 0.732492
vt 0.664154 0.583828
vt 0.661949 0.648441
vt 0.006259 0.808735
vt 0.658685 0.485969
vn 0.937649 -0.163705 -0.306619
vn 0.262008 -0.959437 -0.104079
vn 0.211962 -0.960672 -0.179394
vn 0.794389 -0.176979 -0.581055
vn 0.974865 -0.158314 -0.156762
vn 0.282092 -0.957668 -0.057415
vn 0.155442 -0.962972 -0.220279
vn 0.577983 -0.196610 -0.792010
vn 0.104973 -0.964841 -0.240961
vn 0.314264 -0.219623 -0.923582
vn 0.048126 -0.966994 -0.250211
vn 0.020512 -0.243881 -0.969588
vn -0.023266 -0.970610 -0.239530
vn -0.281274 -0.267427 -0.921611
vn -0.093433 -0.974652 -0.203280
vn -0.553056 -0.286872 -0.782198
vn -0.148959 -0.977888 -0.146789
vn -0.768701 -0.299847 -0.564969
vn -0.181349 -0.980508 -0.075604
vn -0.904210 -0.309669 -0.294125
vn -0.192867 -0.981225 0.000350
vn -0.950609 -0.310389 0.000874
vn -0.181141 -0.980436 0.077022
vn -0.903823 -0.303087 0.302064
vn -0.148895 -0.978844 0.140339
vn -0.766185 -0.287992 0.574475
vn -0.109502 -0.977285 0.181449
vn -0.556829 -0.267619 0.786334
vn -0.064112 -0.975355 0.211123
vn -0.295233 -0.244489 0.923614
vn 0.001848 -0.972395 0.233334
vn 0.002478 -0.220723 0.975334
vn 0.081905 -0.973801 0.212139
vn 0.289427 -0.205314 0.934922
vn 0.079106 -0.992301 0.095289
vn 0.450520 -0.206430 0.868572
vn 0.918853 0.248329 -0.306662
vn 0.202364 0.975923 -0.081388
vn 0.212584 0.976140 -0.044255
vn 0.955967 0.249175 -0.155044
vn 0.775225 0.244667 -0.582378
vn 0.157766 0.973841 -0.163532
vn 0.557769 0.232445 -0.796783
vn 0.077481 0.967616 -0.240242
vn 0.294174 0.213319 -0.931642
vn 0.009655 0.961857 -0.273383
vn -0.001203 0.199017 -0.979995
vn -0.044968 0.963915 -0.262386
vn -0.309018 0.182811 -0.933321
vn -0.120183 0.964948 -0.233304
vn -0.586817 0.162030 -0.793343
vn -0.193174 0.962203 -0.191960
vn -0.804537 0.148901 -0.574933
vn -0.247075 0.958926 -0.139333
vn -0.943480 0.137614 -0.301509
vn -0.283691 0.956075 -0.073762
vn -0.990714 0.135961 -0.000426
vn -0.297146 0.954832 -0.000034
vn -0.940807 0.144678 0.306513
vn -0.286602 0.954319 0.084465
vn -0.798026 0.153800 0.582667
vn -0.263401 0.950992 0.161969
vn -0.585423 0.164936 0.793774
vn -0.238086 0.947871 0.211790
vn -0.321361 0.184014 0.928906
vn -0.170837 0.953786 0.247199
vn -0.019944 0.200670 0.979456
vn -0.061632 0.961626 0.267351
vn 0.262469 0.222613 0.938911
vn 0.020325 0.971364 0.236723
vn 0.427315 0.257570 0.866637
vn -0.004245 0.994620 0.103500
vn 0.373995 0.018238 0.927252
vn 0.450807 0.033186 0.892004
vn 0.267156 0.016627 0.963510
vn 0.027288 -0.999524 -0.014385
vn 0.784345 -0.273394 -0.556829
vn -0.063184 0.997994 -0.003902
vn -0.044135 0.998709 0.025136
vn 0.804317 0.046834 -0.592352
vn 0.804462 0.049567 -0.591932
vn 0.805083 0.041217 -0.591729
vn 0.805008 0.046439 -0.591444
vn 0.586318 0.033460 -0.809389
vn 0.948874 0.053622 -0.311066
vn 0.986079 0.055084 -0.156888
vn 0.000000 0.000000 1.000000
vn -0.004547 0.001514 0.999988
vn -0.003524 0.001450 0.999993
vn 0.000000 0.000000 1.000000
vn -0.004725 0.001574 0.999988
vn -0.003877 0.001594 0.999991
vn 0.803321 0.051456 -0.593319
vn 0.803806 0.051506 -0.592657
vn 0.821551 0.053337 -0.567634
vn 0.821551 0.053337 -0.567634
vn -0.005022 0.001616 0.999986
vn -0.310033 -0.015983 0.950591
vn -0.582881 -0.034571 0.811821
vn -0.803446 -0.052222 0.593082
vn -0.947945 -0.065557 0.311613
vn -0.997415 -0.071862 0.000395
vn -0.949575 -0.069684 -0.305698
vn -0.808648 -0.059787 -0.585247
vn -0.586109 -0.045099 -0.808976
vn -0.304762 -0.026811 -0.952051
vn 0.008397 -0.005594 -0.999949
vn 0.314583 0.015434 -0.949105
vn 0.453442 0.015690 0.891148
vn 0.806066 0.043500 -0.590225
vn 0.819504 0.040096 -0.571669
vn 0.986408 -0.055746 -0.154570
vn 0.805251 0.042478 -0.591411
vn -0.002937 0.001616 0.999994
vn -0.002815 0.001549 0.999995
vn 0.000000 0.000000 1.000000
vn 0.434050 0.029322 0.900412
vn 0.411249 0.279987 0.867457
vn 0.434650 0.017791 0.900424
vn 0.975483 -0.216327 0.040455
vn 0.975483 -0.216327 0.040455
vn 0.960560 -0.275093 0.040593
vn 0.951504 -0.304945 0.040606
vn 0.836643 0.543414 0.068769
vn 0.856882 0.511071 0.067523
vn 0.891052 0.449228 0.064957
vn 0.891052 0.449228 0.064957
vn 0.483071 -0.875087 0.029398
vn 0.295941 0.952417 0.072941
s 1
g REDO:Cheese
usemtl REDO:unwrapChekcerShaderSG
f 3/1/1 4/2/2 6/3/3 5/4/4
f 4/2/2 3/1/1 37/5/5 38/6/6
f 5/4/4 6/3/3 8/7/7 7/8/8
f 7/8/8 8/7/7 10/9/9 9/10/10
f 9/10/10 10/9/9 12/143/11 11/145/12
f 11/145/12 12/143/11 14/11/13 13/12/14
f 13/12/14 14/11/13 16/13/15 15/14/16
f 15/14/16 16/13/15 18/15/17 17/16/18
f 17/16/18 18/15/17 20/17/19 19/18/20
f 19/18/20 20/17/19 22/19/21 21/20/22
f 21/20/22 22/19/21 24/21/23 23/22/24
f 23/22/24 24/21/23 26/23/25 25/24/26
f 25/24/26 26/23/25 28/25/27 27/26/28
f 27/26/28 28/25/27 30/27/29 29/28/30
f 29/28/30 30/27/29 32/29/31 31/30/32
f 31/30/32 32/29/31 34/31/33 33/32/34
f 33/32/34 34/31/33 99/33/35 100/34/36
f 39/35/37 40/36/38 74/153/39 73/38/40
f 40/36/38 39/35/37 41/39/41 42/40/42
f 42/40/42 41/39/41 43/41/43 44/42/44
f 44/42/44 43/41/43 45/144/45 46/43/46
f 46/43/46 45/144/45 47/44/47 48/45/48
f 48/45/48 47/44/47 49/46/49 50/47/50
f 50/47/50 49/46/49 51/48/51 52/49/52
f 52/49/52 51/48/51 53/50/53 54/51/54
f 54/51/54 53/50/53 55/52/55 56/53/56
f 56/53/56 55/52/55 57/54/57 58/55/58
f 58/55/58 57/54/57 59/56/59 60/57/60
f 60/57/60 59/56/59 61/58/61 62/59/62
f 62/59/62 61/58/61 63/60/63 64/61/64
f 64/61/64 63/60/63 65/62/65 66/63/66
f 66/63/66 65/62/65 67/64/67 68/65/68
f 68/65/68 67/64/67 69/66/69 70/67/70
f 70/67/70 69/66/69 104/68/71 105/69/72
f 102/70/73 103/71/74 94/72/75
f 6/104/3 4/105/2 1/106/76
f 8/107/7 6/104/3 1/106/76
f 10/108/9 8/107/7 1/106/76
f 12/109/11 10/108/9 1/106/76
f 14/110/13 12/109/11 1/106/76
f 16/111/15 14/110/13 1/106/76
f 18/112/17 16/111/15 1/106/76
f 20/113/19 18/112/17 1/106/76
f 22/114/21 20/113/19 1/106/76
f 24/115/23 22/114/21 1/106/76
f 26/116/25 24/115/23 1/106/76
f 28/117/27 26/116/25 1/106/76
f 30/118/29 28/117/27 1/106/76
f 32/119/31 30/118/29 1/106/76
f 34/122/33 32/119/31 1/106/76
f 36/142/77 99/120/35 34/122/33 1/106/76
f 4/105/2 38/103/6 1/106/76
f 40/123/38 42/124/42 2/125/78
f 42/124/42 44/126/44 2/125/78
f 44/126/44 46/127/46 2/125/78
f 46/127/46 48/128/48 2/125/78
f 48/128/48 50/129/50 2/125/78
f 50/129/50 52/130/52 2/125/78
f 52/130/52 54/131/54 2/125/78
f 54/131/54 56/132/56 2/125/78
f 56/132/56 58/133/58 2/125/78
f 58/133/58 60/134/60 2/125/78
f 60/134/60 62/135/62 2/125/78
f 62/135/62 64/136/64 2/125/78
f 64/136/64 66/137/66 2/125/78
f 66/137/66 68/138/68 2/125/78
f 68/138/68 70/140/70 2/125/78
f 70/140/70 105/141/72 72/139/79 2/125/78
f 74/121/39 40/123/38 2/125/78
f 97/73/80 78/151/81 80/149/82
f 43/41/43 41/39/41 98/76/83 81/77/84
f 75/78/85 98/76/83 41/39/41 39/35/37
f 39/35/37 73/38/40 76/79/86 75/78/85
s 4
f 73/38/87 74/153/88 77/146/89 76/79/90
f 74/37/88 2/81/91 97/73/92 77/80/89
s 1
f 2/81/93 72/152/94 78/151/81 97/73/80
f 72/82/94 71/83/95 79/84/96 78/74/81
f 103/71/74 104/68/71 69/66/69 94/72/75
f 69/66/69 67/64/67 93/85/97 94/72/75
f 67/64/67 65/62/65 92/86/98 93/85/97
f 65/62/65 63/60/63 91/87/99 92/86/98
f 63/60/63 61/58/61 90/88/100 91/87/99
f 61/58/61 59/56/59 89/89/101 90/88/100
f 59/56/59 57/54/57 88/90/102 89/89/101
f 57/54/57 55/52/55 87/91/103 88/90/102
f 55/52/55 53/50/53 86/92/104 87/91/103
f 53/50/53 51/48/51 85/93/105 86/92/104
f 51/48/51 49/46/49 84/94/106 85/93/105
f 49/46/49 47/44/47 83/95/107 84/94/106
f 47/44/47 45/144/45 82/96/108 83/95/107
f 45/144/45 43/41/43 81/77/84 82/96/108
f 101/97/109 102/70/73 94/72/75
f 97/73/80 80/149/82 96/148/110
f 82/96/108 81/77/84 7/8/8 9/10/10
f 83/95/107 82/96/108 9/10/10 11/145/12
f 84/94/106 83/95/107 11/145/12 13/12/14
f 85/93/105 84/94/106 13/12/14 15/14/16
f 86/92/104 85/93/105 15/14/16 17/16/18
f 87/91/103 86/92/104 17/16/18 19/18/20
f 88/90/102 87/91/103 19/18/20 21/20/22
f 89/89/101 88/90/102 21/20/22 23/22/24
f 90/88/100 89/89/101 23/22/24 25/24/26
f 91/87/99 90/88/100 25/24/26 27/26/28
f 92/86/98 91/87/99 27/26/28 29/28/30
f 93/85/97 92/86/98 29/28/30 31/30/32
f 94/72/75 93/85/97 31/30/32 33/32/34
f 100/34/36 101/97/109 94/72/75 33/32/34
f 96/98/110 95/99/111 35/100/112 36/101/77
f 97/73/80 96/148/110 36/154/77 1/102/113
s 4
f 77/80/89 97/73/92 1/102/114 38/147/115
f 76/79/90 77/146/89 38/6/115 37/5/116
s 1
f 75/78/85 76/79/86 37/5/5 3/1/1
f 5/4/4 98/76/83 75/78/85 3/1/1
f 81/77/84 98/76/83 5/4/4 7/8/8
f 100/34/36 99/33/35 36/101/77 35/100/112
f 95/99/117 101/97/109 100/34/36 35/100/112
f 71/83/118 104/68/71 103/71/74 79/84/119
f 105/69/72 104/68/71 71/83/118 72/82/79
s 5
f 102/70/120 80/75/121 78/74/122 103/71/123
s 6
f 101/97/124 96/98/125 80/150/126 102/70/127
s 5
f 103/71/123 78/74/122 79/84/128
s 6
f 96/98/125 101/97/124 95/99/129
