# This file uses centimeters as units for non-parametric coordinates.

mtllib Decorations_Banquet_geo.mtl
g default
v -49.763107 7.682825 -0.000000
v 49.763107 7.682825 -0.000000
v -49.763107 6.679323 -0.000000
v 49.763107 6.679323 -0.000000
v 24.881554 4.830889 -0.000000
v 24.881554 3.830889 -0.000000
v -0.000002 4.223196 -0.000000
v -0.000002 3.225748 -0.000000
v -24.881554 4.830889 -0.000000
v -24.881554 3.830889 -0.000000
v -4.539166 3.225748 0.500000
v 4.539166 3.225748 0.500000
v 0.000000 -7.682825 0.500000
v 19.405216 4.227926 0.500000
v 28.483547 4.227926 0.500000
v 23.944382 -6.680645 0.500000
v -30.368832 4.227926 0.500000
v -21.290501 4.227926 0.500000
v -25.829666 -6.680645 0.500000
v -18.090727 4.227926 0.500000
v -9.012394 4.227926 0.500000
v -13.551560 -6.680645 0.500000
v 6.961438 4.227926 0.500000
v 16.039770 4.227926 0.500000
v 11.500604 -6.680645 0.500000
v 33.066666 5.904161 0.500000
v 42.144997 5.904161 0.500000
v 37.605831 -5.004412 0.500000
v -42.946388 5.904161 0.500000
v -33.868057 5.904161 0.500000
v -38.407223 -5.004412 0.500000
vt 0.000000 0.880712
vt 1.000000 0.880712
vt 0.000000 0.950216
vt 1.000000 0.950216
vt 0.750000 0.880712
vt 0.750000 0.950216
vt 0.500000 0.880712
vt 0.500000 0.950216
vt 0.250000 0.880712
vt 0.250000 0.950216
vt 0.993545 0.798456
vt 0.426060 0.798456
vt 0.709803 0.230971
vt 0.994100 0.799011
vt 0.425505 0.799011
vt 0.709803 0.230416
vt 0.994100 0.799011
vt 0.425505 0.799011
vt 0.709803 0.230416
vt 0.009195 0.234640
vt 0.606152 0.234640
vt 0.307673 0.831598
vt 0.009195 0.234640
vt 0.606152 0.234640
vt 0.307673 0.831598
vt 0.009195 0.234640
vt 0.606152 0.234640
vt 0.307673 0.831598
vt 0.009195 0.234640
vt 0.606152 0.234640
vt 0.307673 0.831598
vn 0.000000 -0.000000 -1.000000
vn 0.000000 -0.000000 -1.000000
vn 0.000000 -0.000000 -1.000000
vn 0.000000 -0.000000 -1.000000
vn -0.000000 -0.000000 -1.000000
vn -0.000000 -0.000000 -1.000000
vn -0.000000 -0.000000 -1.000000
vn -0.000000 -0.000000 -1.000000
vn 0.000000 -0.000000 -1.000000
vn -0.000000 -0.000000 -1.000000
vn 0.000000 0.000000 -1.000000
vn 0.000000 0.000000 -1.000000
vn 0.000000 0.000000 -1.000000
vn 0.000000 0.000000 -1.000000
vn 0.000000 0.000000 -1.000000
vn 0.000000 0.000000 -1.000000
vn 0.000000 0.000000 -1.000000
vn 0.000000 0.000000 -1.000000
vn 0.000000 0.000000 -1.000000
vn 0.000000 0.000000 -1.000000
vn 0.000000 0.000000 -1.000000
vn 0.000000 0.000000 -1.000000
vn 0.000000 0.000000 -1.000000
vn 0.000000 0.000000 -1.000000
vn 0.000000 0.000000 -1.000000
vn 0.000000 0.000000 -1.000000
vn 0.000000 0.000000 -1.000000
vn 0.000000 0.000000 -1.000000
vn 0.000000 0.000000 -1.000000
vn 0.000000 0.000000 -1.000000
vn 0.000000 0.000000 -1.000000
s 1
g pPlane9
usemtl initialShadingGroup
f 1/1/1 9/9/2 10/10/3 3/3/4
f 5/5/5 2/2/6 4/4/7 6/6/8
f 7/7/9 5/5/5 6/6/8 8/8/10
f 9/9/2 7/7/9 8/8/10 10/10/3
s off
f 11/11/11 12/12/12 13/13/13
f 14/14/14 15/15/15 16/16/16
f 17/17/17 18/18/18 19/19/19
f 20/20/20 21/21/21 22/22/22
f 23/23/23 24/24/24 25/25/25
f 26/26/26 27/27/27 28/28/28
f 29/29/29 30/30/30 31/31/31
