# This file uses centimeters as units for non-parametric coordinates.

mtllib PlateSmall_Banquet_geo.mtl
g default
v -1.374957 0.855512 -3.970578
v -2.534640 0.855512 -3.351360
v -3.446207 0.855512 -2.404088
v -4.020445 0.855512 -1.221484
v -4.201128 0.855512 0.080685
v -3.970580 0.855512 1.374956
v -3.351355 0.855512 2.534637
v -2.404086 0.855512 3.446210
v -1.221484 0.855512 4.020443
v 0.080686 0.855512 4.201128
v 1.374956 0.855512 3.970577
v 2.534635 0.855512 3.351358
v 3.446207 0.855512 2.404085
v 4.020441 0.855512 1.221485
v 4.201124 0.855512 -0.080685
v 3.970575 0.855512 -1.374955
v 3.351358 0.855512 -2.534638
v 2.404089 0.855512 -3.446208
v 1.221487 0.855512 -4.020442
v -0.080683 0.855512 -4.201128
v -1.249609 0.389755 -3.608594
v -2.303564 0.389755 -3.045828
v -3.132033 0.389755 -2.184916
v -3.653918 0.389755 -1.110125
v -3.818125 0.389755 0.073329
v -3.608591 0.389755 1.249606
v -3.045828 0.389755 2.303563
v -2.184908 0.389755 3.132031
v -1.110129 0.389755 3.653913
v 0.073328 0.389755 3.818126
v 1.249609 0.389755 3.608593
v 2.303560 0.389755 3.045826
v 3.132028 0.389755 2.184913
v 3.653913 0.389755 1.110126
v 3.818128 0.389755 -0.073329
v 3.608591 0.389755 -1.249605
v 3.045824 0.389755 -2.303564
v 2.184911 0.389755 -3.132030
v 1.110120 0.389755 -3.653912
v -0.073332 0.389755 -3.818126
v 0.000002 0.198298 0.000000
v -1.162611 0.556929 -3.357379
v -2.143195 0.556929 -2.833790
v 0.000002 0.556929 0.000000
v -2.913992 0.556929 -2.032808
v -3.399542 0.556929 -1.032842
v -3.552317 0.556929 0.068225
v -3.357375 0.556929 1.162614
v -2.833781 0.556929 2.143198
v -2.032805 0.556929 2.913990
v -1.032843 0.556929 3.399539
v 0.068224 0.556929 3.552320
v 1.162614 0.556929 3.357375
v 2.143194 0.556929 2.833787
v 2.913988 0.556929 2.032808
v 3.399534 0.556929 1.032843
v 3.552320 0.556929 -0.068224
v 3.357374 0.556929 -1.162612
v 2.833784 0.556929 -2.143195
v 2.032804 0.556929 -2.913990
v 1.032842 0.556929 -3.399539
v -0.068228 0.556929 -3.552322
vt 0.534277 0.929623
vt 0.523055 0.098510
vt 0.499342 0.120274
vt 0.475730 0.862834
vt 0.433885 0.067880
vt 0.440688 0.781226
vt 0.450233 0.039511
vt 0.432579 0.692785
vt 0.355656 0.037951
vt 0.452196 0.606170
vt 0.362582 0.005917
vt 0.497618 0.529857
vt 0.272006 0.033590
vt 0.564398 0.471316
vt 0.268741 0.000977
vt 0.645998 0.436276
vt 0.191067 0.055302
vt 0.734431 0.428167
vt 0.177899 0.025286
vt 0.821039 0.447782
vt 0.120769 0.100991
vt 0.897345 0.493198
vt 0.098974 0.076509
vt 0.955878 0.559969
vt 0.068008 0.166195
vt 0.990912 0.641554
vt 0.039717 0.149644
vt 0.999023 0.729963
vt 0.037965 0.244535
vt 0.979434 0.816534
vt 0.005945 0.237534
vt 0.934037 0.892772
vt 0.033594 0.328342
vt 0.867410 0.951538
vt 0.000977 0.331577
vt 0.785715 0.986558
vt 0.055331 0.409412
vt 0.697237 0.994677
vt 0.564754 0.893113
vt 0.715803 0.711422
vt 0.628302 0.930913
vt 0.515997 0.837529
vt 0.486804 0.769602
vt 0.480030 0.695982
vt 0.496337 0.623873
vt 0.534129 0.560333
vt 0.589704 0.511583
vt 0.657622 0.482393
vt 0.731236 0.475619
vt 0.803338 0.491924
vt 0.866869 0.529710
vt 0.915613 0.585278
vt 0.944798 0.653187
vt 0.951573 0.726791
vt 0.935287 0.798895
vt 0.897563 0.862485
vt 0.774052 0.940439
vt 0.841937 0.911175
vt 0.700424 0.947225
vt 0.025310 0.422566
vt 0.101060 0.479805
vt 0.076572 0.501591
vt 0.166313 0.532628
vt 0.149756 0.560915
vt 0.244714 0.562705
vt 0.237707 0.594722
vt 0.328597 0.567081
vt 0.331827 0.599696
vt 0.409765 0.545314
vt 0.422915 0.575335
vt 0.480280 0.499515
vt 0.502065 0.524000
vt 0.533232 0.434136
vt 0.561526 0.450674
vt 0.563358 0.355554
vt 0.595420 0.362449
vt 0.567347 0.271561
vt 0.600573 0.267831
vt 0.300567 0.300474
vt 0.610601 0.975055
vt 0.545327 0.190505
vt 0.575060 0.176747
vn -0.465879 -0.635221 -0.615996
vn -0.465879 -0.635221 -0.615997
vn -0.633431 -0.635221 -0.441883
vn -0.633430 -0.635221 -0.441883
vn -0.738980 -0.635218 -0.224515
vn -0.738980 -0.635218 -0.224515
vn -0.772189 -0.635220 0.014832
vn -0.772189 -0.635220 0.014831
vn -0.729810 -0.635223 0.252723
vn -0.729811 -0.635223 0.252723
vn -0.615996 -0.635221 0.465879
vn -0.615996 -0.635221 0.465880
vn -0.441883 -0.635221 0.633431
vn -0.441884 -0.635221 0.633430
vn -0.224515 -0.635220 0.738978
vn -0.224514 -0.635220 0.738978
vn 0.014830 -0.635220 0.772189
vn 0.014831 -0.635220 0.772189
vn 0.252724 -0.635223 0.729810
vn 0.252723 -0.635223 0.729810
vn 0.465879 -0.635222 0.615995
vn 0.465879 -0.635222 0.615995
vn 0.633430 -0.635221 0.441883
vn 0.633430 -0.635221 0.441883
vn 0.738979 -0.635218 0.224516
vn 0.738979 -0.635218 0.224516
vn 0.772193 -0.635215 -0.014831
vn 0.772193 -0.635215 -0.014831
vn 0.729812 -0.635221 -0.252724
vn 0.729812 -0.635221 -0.252724
vn 0.615994 -0.635225 -0.465877
vn 0.615994 -0.635225 -0.465876
vn 0.441881 -0.635224 -0.633428
vn 0.441882 -0.635224 -0.633428
vn 0.224514 -0.635223 -0.738976
vn 0.224515 -0.635223 -0.738976
vn -0.014830 -0.635220 -0.772189
vn -0.014829 -0.635220 -0.772189
vn 0.089415 0.988953 0.118227
vn 0.000000 1.000000 -0.000000
vn 0.048505 0.988953 0.140071
vn 0.121573 0.988953 0.084810
vn 0.141830 0.988953 0.043090
vn 0.148204 0.988953 -0.002846
vn 0.140071 0.988953 -0.048505
vn 0.118226 0.988953 -0.089415
vn 0.084810 0.988953 -0.121573
vn 0.043091 0.988953 -0.141831
vn -0.002846 0.988953 -0.148205
vn -0.048505 0.988953 -0.140072
vn -0.089415 0.988953 -0.118227
vn -0.121573 0.988953 -0.084810
vn -0.141830 0.988953 -0.043090
vn -0.148205 0.988953 0.002846
vn -0.140071 0.988953 0.048505
vn -0.118227 0.988953 0.089415
vn -0.043091 0.988953 0.141830
vn -0.084809 0.988953 0.121573
vn 0.002846 0.988953 0.148205
vn 0.000000 -1.000000 -0.000000
vn -0.030204 -0.998746 -0.039937
vn -0.016385 -0.998746 -0.047315
vn -0.041067 -0.998746 -0.028648
vn -0.047910 -0.998746 -0.014556
vn -0.050063 -0.998746 0.000962
vn -0.047315 -0.998746 0.016385
vn -0.039936 -0.998746 0.030204
vn -0.028648 -0.998746 0.041067
vn -0.014556 -0.998746 0.047910
vn 0.000961 -0.998746 0.050063
vn 0.016385 -0.998746 0.047315
vn 0.030204 -0.998746 0.039937
vn 0.041067 -0.998746 0.028648
vn 0.047910 -0.998746 0.014556
vn 0.050063 -0.998746 -0.000962
vn 0.047316 -0.998746 -0.016385
vn 0.039937 -0.998746 -0.030204
vn 0.028648 -0.998746 -0.041067
vn 0.014556 -0.998746 -0.047910
vn -0.000961 -0.998746 -0.050063
vn 0.252139 0.908450 0.333383
vn 0.136777 0.908450 0.394983
vn 0.342819 0.908450 0.239152
vn 0.399943 0.908450 0.121509
vn 0.417917 0.908450 -0.008027
vn 0.394980 0.908451 -0.136776
vn 0.333383 0.908450 -0.252138
vn 0.239152 0.908450 -0.342819
vn 0.121509 0.908450 -0.399942
vn -0.008026 0.908450 -0.417917
vn -0.136777 0.908450 -0.394982
vn -0.252139 0.908450 -0.333384
vn -0.342820 0.908449 -0.239152
vn -0.399944 0.908449 -0.121510
vn -0.417918 0.908449 0.008026
vn -0.394982 0.908450 0.136777
vn -0.333383 0.908450 0.252138
vn -0.121510 0.908450 0.399943
vn -0.239152 0.908450 0.342819
vn 0.008025 0.908449 0.417918
vn -0.252724 -0.635219 -0.729813
vn -0.252723 -0.635219 -0.729813
s 1
g REDO:Plate
usemtl REDO:unwrapChekcerShaderSG
f 2/2/1 22/3/2 23/5/3 3/7/4
f 3/7/4 23/5/3 24/9/5 4/11/6
f 4/11/6 24/9/5 25/13/7 5/15/8
f 5/15/8 25/13/7 26/17/9 6/19/10
f 6/19/10 26/17/9 27/21/11 7/23/12
f 7/23/12 27/21/11 28/25/13 8/27/14
f 8/27/14 28/25/13 29/29/15 9/31/16
f 9/31/16 29/29/15 30/33/17 10/35/18
f 10/35/18 30/33/17 31/37/19 11/60/20
f 11/60/20 31/37/19 32/61/21 12/62/22
f 12/62/22 32/61/21 33/63/23 13/64/24
f 13/64/24 33/63/23 34/65/25 14/66/26
f 14/66/26 34/65/25 35/67/27 15/68/28
f 15/68/28 35/67/27 36/69/29 16/70/30
f 16/70/30 36/69/29 37/71/31 17/72/32
f 17/72/32 37/71/31 38/73/33 18/74/34
f 18/74/34 38/73/33 39/75/35 19/76/36
f 19/76/36 39/75/35 40/77/37 20/78/38
s 2
f 43/39/39 44/40/40 42/41/41
f 45/42/42 44/40/40 43/39/39
f 46/43/43 44/40/40 45/42/42
f 47/44/44 44/40/40 46/43/43
f 48/45/45 44/40/40 47/44/44
f 49/46/46 44/40/40 48/45/45
f 50/47/47 44/40/40 49/46/46
f 51/48/48 44/40/40 50/47/47
f 52/49/49 44/40/40 51/48/48
f 53/50/50 44/40/40 52/49/49
f 54/51/51 44/40/40 53/50/50
f 55/52/52 44/40/40 54/51/51
f 56/53/53 44/40/40 55/52/52
f 57/54/54 44/40/40 56/53/53
f 58/55/55 44/40/40 57/54/54
f 59/56/56 44/40/40 58/55/55
f 61/57/57 44/40/40 60/58/58
f 62/59/59 44/40/40 61/57/57
f 42/41/41 44/40/40 62/59/59
s 4
f 41/79/60 22/3/61 21/81/62
f 41/79/60 23/5/63 22/3/61
f 41/79/60 24/9/64 23/5/63
f 41/79/60 25/13/65 24/9/64
f 41/79/60 26/17/66 25/13/65
f 41/79/60 27/21/67 26/17/66
f 41/79/60 28/25/68 27/21/67
f 41/79/60 29/29/69 28/25/68
f 41/79/60 30/33/70 29/29/69
f 41/79/60 31/37/71 30/33/70
f 41/79/60 32/61/72 31/37/71
f 41/79/60 33/63/73 32/61/72
f 41/79/60 34/65/74 33/63/73
f 41/79/60 35/67/75 34/65/74
f 41/79/60 36/69/76 35/67/75
f 41/79/60 37/71/77 36/69/76
f 41/79/60 38/73/78 37/71/77
f 41/79/60 39/75/79 38/73/78
f 41/79/60 40/77/80 39/75/79
f 41/79/60 21/81/62 40/77/80
s 2
f 2/1/81 43/39/39 42/41/41 1/80/82
f 3/4/83 45/42/42 43/39/39 2/1/81
f 4/6/84 46/43/43 45/42/42 3/4/83
f 5/8/85 47/44/44 46/43/43 4/6/84
f 6/10/86 48/45/45 47/44/44 5/8/85
f 7/12/87 49/46/46 48/45/45 6/10/86
f 8/14/88 50/47/47 49/46/46 7/12/87
f 9/16/89 51/48/48 50/47/47 8/14/88
f 10/18/90 52/49/49 51/48/48 9/16/89
f 11/20/91 53/50/50 52/49/49 10/18/90
f 12/22/92 54/51/51 53/50/50 11/20/91
f 13/24/93 55/52/52 54/51/51 12/22/92
f 14/26/94 56/53/53 55/52/52 13/24/93
f 15/28/95 57/54/54 56/53/53 14/26/94
f 16/30/96 58/55/55 57/54/54 15/28/95
f 17/32/97 59/56/56 58/55/55 16/30/96
f 19/36/98 61/57/57 60/58/58 18/34/99
f 20/38/100 62/59/59 61/57/57 19/36/98
f 1/80/82 42/41/41 62/59/59 20/38/100
f 17/32/97 18/34/99 60/58/58 59/56/56
f 60/58/58 44/40/40 59/56/56
s 1
f 21/81/101 22/3/2 2/2/1 1/82/102
f 40/77/37 21/81/101 1/82/102 20/78/38
