# This file uses centimeters as units for non-parametric coordinates.

mtllib Wood_Banquet_geo.mtl
g default
v -2.327924 -2.327924 2.327924
v 2.327924 -2.327924 2.327924
v -2.327924 58.918396 2.327924
v 2.327924 58.918396 2.327924
v -2.327924 58.918396 -2.327924
v 2.327924 58.918396 -2.327924
v -2.327924 -2.327924 -2.327924
v 2.327924 -2.327924 -2.327924
v -2.753168 33.284790 2.327924
v 1.902680 33.284790 2.327924
v 1.902680 33.284790 -2.327924
v -2.753168 33.284790 -2.327924
v -2.891130 19.586678 2.327924
v 1.764718 19.586678 2.327924
v 1.764718 19.586681 -2.327924
v -2.891130 19.586681 -2.327924
vt 0.247202 0.993275
vt 0.172311 0.993198
vt 0.423313 0.094821
vt 0.348422 0.094821
vt 0.423313 0.019930
vt 0.348422 0.019930
vt 0.500292 0.094821
vt 0.425401 0.094821
vt 0.500292 0.019930
vt 0.425401 0.019930
vt 0.173326 0.008027
vt 0.248217 0.008104
vt 0.323108 0.008181
vt 0.322093 0.993352
vt 0.023543 0.007872
vt 0.098435 0.007949
vt 0.097420 0.993120
vt 0.022529 0.993043
vt 0.247792 0.420430
vt 0.172901 0.420353
vt 0.098010 0.420276
vt 0.322683 0.420507
vt 0.023119 0.420199
vt 0.247565 0.640770
vt 0.172674 0.640693
vt 0.097783 0.640615
vt 0.322456 0.640847
vt 0.022892 0.640538
vn 0.000000 0.000000 1.000000
vn 0.000000 0.000000 1.000000
vn 0.000000 0.000000 1.000000
vn 0.000000 0.000000 1.000000
vn 0.000000 1.000000 0.000000
vn 0.000000 1.000000 0.000000
vn 0.000000 1.000000 0.000000
vn 0.000000 1.000000 0.000000
vn 0.000000 0.000000 -1.000000
vn 0.000000 0.000000 -1.000000
vn 0.000000 0.000000 -1.000000
vn 0.000000 0.000000 -1.000000
vn 0.000000 -1.000000 0.000000
vn 0.000000 -1.000000 0.000000
vn 0.000000 -1.000000 0.000000
vn 0.000000 -1.000000 0.000000
vn 0.999898 -0.014318 -0.000000
vn 0.999898 -0.014318 -0.000000
vn 0.999862 -0.016587 0.000000
vn 0.999862 -0.016587 0.000000
vn -0.999898 0.014318 0.000000
vn -0.999898 0.014318 0.000000
vn -0.999862 0.016587 0.000000
vn -0.999862 0.016587 0.000000
vn 0.000000 0.000000 1.000000
vn 0.000000 0.000000 1.000000
vn 0.999929 0.011940 0.000000
vn 0.999929 0.011940 0.000000
vn 0.000000 0.000000 -1.000000
vn 0.000000 0.000000 -1.000000
vn -0.999929 -0.011940 -0.000000
vn -0.999929 -0.011940 -0.000000
vn 0.000000 0.000000 1.000000
vn 0.000000 0.000000 1.000000
vn 0.999670 0.025692 0.000000
vn 0.999670 0.025692 0.000000
vn 0.000000 0.000000 -1.000000
vn 0.000000 0.000000 -1.000000
vn -0.999670 -0.025692 -0.000000
vn -0.999670 -0.025692 -0.000000
s 1
g pCube19
usemtl initialShadingGroup
f 9/19/1 10/20/2 4/11/3 3/12/4
s off
f 3/3/5 4/4/6 6/6/7 5/5/8
s 2
f 5/15/9 6/16/10 11/21/11 12/23/12
s off
f 7/7/13 8/8/14 2/10/15 1/9/16
s 3
f 10/20/17 11/21/18 6/16/19 4/11/20
s 4
f 12/22/21 9/19/22 3/12/23 5/13/24
s 1
f 13/24/25 14/25/26 10/20/2 9/19/1
s 3
f 14/25/27 15/26/28 11/21/18 10/20/17
s 2
f 12/23/12 11/21/11 15/26/29 16/28/30
s 4
f 16/27/31 13/24/32 9/19/22 12/22/21
s 1
f 1/1/33 2/2/34 14/25/26 13/24/25
s 3
f 2/2/35 8/17/36 15/26/28 14/25/27
s 2
f 16/28/30 15/26/29 8/17/37 7/18/38
s 4
f 7/14/39 1/1/40 13/24/32 16/27/31
